<?xml version="1.0" encoding="utf-8" standalone="no"?>
<!DOCTYPE svg PUBLIC "-//W3C//DTD SVG 1.1//EN"
  "http://www.w3.org/Graphics/SVG/1.1/DTD/svg11.dtd">
<!-- Created with matplotlib (http://matplotlib.org/) -->
<svg height="345pt" version="1.1" viewBox="0 0 460 345" width="460pt" xmlns="http://www.w3.org/2000/svg" xmlns:xlink="http://www.w3.org/1999/xlink">
 <defs>
  <style type="text/css">
*{stroke-linecap:butt;stroke-linejoin:round;}
  </style>
 </defs>
 <g id="figure_1">
  <g id="patch_1">
   <path d="M 0 345.6 
L 460.8 345.6 
L 460.8 0 
L 0 0 
z
" style="fill:#ffffff;"/>
  </g>
  <g id="axes_1">
   <g id="LineCollection_1">
    <path clip-path="url(#pd32255298b)" d="M 242.124118 106.091778 
L 163.722503 153.759332 
" style="fill:none;stroke:#282828;stroke-width:2;"/>
    <path clip-path="url(#pd32255298b)" d="M 242.124118 106.091778 
L 299.579131 183.75938 
" style="fill:none;stroke:#282828;stroke-width:2;"/>
    <path clip-path="url(#pd32255298b)" d="M 374.209539 214.636034 
L 299.579131 183.75938 
" style="fill:none;stroke:#282828;stroke-width:2;"/>
    <path clip-path="url(#pd32255298b)" d="M 363.138278 111.702572 
L 299.579131 183.75938 
" style="fill:none;stroke:#282828;stroke-width:2;"/>
    <path clip-path="url(#pd32255298b)" d="M 380.81237 188.596264 
L 299.579131 183.75938 
" style="fill:none;stroke:#282828;stroke-width:2;"/>
    <path clip-path="url(#pd32255298b)" d="M 106.532902 223.18281 
L 163.722503 153.759332 
" style="fill:none;stroke:#282828;stroke-width:2;"/>
    <path clip-path="url(#pd32255298b)" d="M 307.420155 273.848345 
L 299.579131 183.75938 
" style="fill:none;stroke:#282828;stroke-width:2;"/>
    <path clip-path="url(#pd32255298b)" d="M 336.859096 258.250719 
L 299.579131 183.75938 
" style="fill:none;stroke:#282828;stroke-width:2;"/>
    <path clip-path="url(#pd32255298b)" d="M 270.298417 284.491636 
L 299.579131 183.75938 
" style="fill:none;stroke:#282828;stroke-width:2;"/>
    <path clip-path="url(#pd32255298b)" d="M 109.740125 104.813983 
L 163.722503 153.759332 
" style="fill:none;stroke:#282828;stroke-width:2;"/>
    <path clip-path="url(#pd32255298b)" d="M 335.899562 85.568888 
L 299.579131 183.75938 
" style="fill:none;stroke:#282828;stroke-width:2;"/>
    <path clip-path="url(#pd32255298b)" d="M 357.337877 237.12317 
L 299.579131 183.75938 
" style="fill:none;stroke:#282828;stroke-width:2;"/>
    <path clip-path="url(#pd32255298b)" d="M 92.160801 200.302601 
L 163.722503 153.759332 
" style="fill:none;stroke:#282828;stroke-width:2;"/>
    <path clip-path="url(#pd32255298b)" d="M 97.542822 127.336931 
L 163.722503 153.759332 
" style="fill:none;stroke:#282828;stroke-width:2;"/>
    <path clip-path="url(#pd32255298b)" d="M 224.987455 136.736608 
L 163.722503 153.759332 
" style="fill:none;stroke:#282828;stroke-width:2;"/>
    <path clip-path="url(#pd32255298b)" d="M 224.987455 136.736608 
L 299.579131 183.75938 
" style="fill:none;stroke:#282828;stroke-width:2;"/>
    <path clip-path="url(#pd32255298b)" d="M 88.589752 150.966619 
L 163.722503 153.759332 
" style="fill:none;stroke:#282828;stroke-width:2;"/>
    <path clip-path="url(#pd32255298b)" d="M 263.524644 139.289467 
L 163.722503 153.759332 
" style="fill:none;stroke:#282828;stroke-width:2;"/>
    <path clip-path="url(#pd32255298b)" d="M 263.524644 139.289467 
L 299.579131 183.75938 
" style="fill:none;stroke:#282828;stroke-width:2;"/>
    <path clip-path="url(#pd32255298b)" d="M 129.713386 85.48124 
L 163.722503 153.759332 
" style="fill:none;stroke:#282828;stroke-width:2;"/>
    <path clip-path="url(#pd32255298b)" d="M 195.142747 205.854467 
L 163.722503 153.759332 
" style="fill:none;stroke:#282828;stroke-width:2;"/>
    <path clip-path="url(#pd32255298b)" d="M 195.142747 205.854467 
L 299.579131 183.75938 
" style="fill:none;stroke:#282828;stroke-width:2;"/>
    <path clip-path="url(#pd32255298b)" d="M 155.471777 69.911485 
L 163.722503 153.759332 
" style="fill:none;stroke:#282828;stroke-width:2;"/>
    <path clip-path="url(#pd32255298b)" d="M 233.533633 199.174188 
L 163.722503 153.759332 
" style="fill:none;stroke:#282828;stroke-width:2;"/>
    <path clip-path="url(#pd32255298b)" d="M 233.533633 199.174188 
L 299.579131 183.75938 
" style="fill:none;stroke:#282828;stroke-width:2;"/>
    <path clip-path="url(#pd32255298b)" d="M 377.389118 136.167839 
L 299.579131 183.75938 
" style="fill:none;stroke:#282828;stroke-width:2;"/>
    <path clip-path="url(#pd32255298b)" d="M 88.614107 175.323166 
L 163.722503 153.759332 
" style="fill:none;stroke:#282828;stroke-width:2;"/>
    <path clip-path="url(#pd32255298b)" d="M 299.579131 183.75938 
L 215.971221 230.376611 
" style="fill:none;stroke:#282828;stroke-width:2;"/>
    <path clip-path="url(#pd32255298b)" d="M 299.579131 183.75938 
L 383.730248 162.205125 
" style="fill:none;stroke:#282828;stroke-width:2;"/>
    <path clip-path="url(#pd32255298b)" d="M 299.579131 183.75938 
L 225.947207 168.45322 
" style="fill:none;stroke:#282828;stroke-width:2;"/>
    <path clip-path="url(#pd32255298b)" d="M 190.063889 64.564364 
L 163.722503 153.759332 
" style="fill:none;stroke:#282828;stroke-width:2;"/>
    <path clip-path="url(#pd32255298b)" d="M 215.971221 230.376611 
L 163.722503 153.759332 
" style="fill:none;stroke:#282828;stroke-width:2;"/>
    <path clip-path="url(#pd32255298b)" d="M 163.722503 153.759332 
L 132.904889 243.811969 
" style="fill:none;stroke:#282828;stroke-width:2;"/>
    <path clip-path="url(#pd32255298b)" d="M 163.722503 153.759332 
L 225.947207 168.45322 
" style="fill:none;stroke:#282828;stroke-width:2;"/>
   </g>
   <g id="PathCollection_1">
    <defs>
     <path d="M 0 16.583124 
C 4.397896 16.583124 8.616257 14.835821 11.726039 11.726039 
C 14.835821 8.616257 16.583124 4.397896 16.583124 0 
C 16.583124 -4.397896 14.835821 -8.616257 11.726039 -11.726039 
C 8.616257 -14.835821 4.397896 -16.583124 0 -16.583124 
C -4.397896 -16.583124 -8.616257 -14.835821 -11.726039 -11.726039 
C -14.835821 -8.616257 -16.583124 -4.397896 -16.583124 0 
C -16.583124 4.397896 -14.835821 8.616257 -11.726039 11.726039 
C -8.616257 14.835821 -4.397896 16.583124 0 16.583124 
z
" id="m12827f2344" style="stroke:#202020;stroke-width:0.5;"/>
    </defs>
    <g clip-path="url(#pd32255298b)">
     <use style="fill:#b8b8b8;stroke:#202020;stroke-width:2;" x="242.124118" xlink:href="#m12827f2344" y="106.091778"/>
     <use style="fill:#b8b8b8;stroke:#202020;stroke-width:2;" x="374.209539" xlink:href="#m12827f2344" y="214.636034"/>
     <use style="fill:#b8b8b8;stroke:#202020;stroke-width:2;" x="363.138278" xlink:href="#m12827f2344" y="111.702572"/>
     <use style="fill:#b8b8b8;stroke:#202020;stroke-width:2;" x="380.81237" xlink:href="#m12827f2344" y="188.596264"/>
     <use style="fill:#b8b8b8;stroke:#202020;stroke-width:2;" x="106.532902" xlink:href="#m12827f2344" y="223.18281"/>
     <use style="fill:#b8b8b8;stroke:#202020;stroke-width:2;" x="307.420155" xlink:href="#m12827f2344" y="273.848345"/>
     <use style="fill:#b8b8b8;stroke:#202020;stroke-width:2;" x="336.859096" xlink:href="#m12827f2344" y="258.250719"/>
     <use style="fill:#b8b8b8;stroke:#202020;stroke-width:2;" x="270.298417" xlink:href="#m12827f2344" y="284.491636"/>
     <use style="fill:#b8b8b8;stroke:#202020;stroke-width:2;" x="109.740125" xlink:href="#m12827f2344" y="104.813983"/>
     <use style="fill:#b8b8b8;stroke:#202020;stroke-width:2;" x="335.899562" xlink:href="#m12827f2344" y="85.568888"/>
     <use style="fill:#b8b8b8;stroke:#202020;stroke-width:2;" x="357.337877" xlink:href="#m12827f2344" y="237.12317"/>
     <use style="fill:#b8b8b8;stroke:#202020;stroke-width:2;" x="92.160801" xlink:href="#m12827f2344" y="200.302601"/>
     <use style="fill:#b8b8b8;stroke:#202020;stroke-width:2;" x="97.542822" xlink:href="#m12827f2344" y="127.336931"/>
     <use style="fill:#b8b8b8;stroke:#202020;stroke-width:2;" x="224.987455" xlink:href="#m12827f2344" y="136.736608"/>
     <use style="fill:#b8b8b8;stroke:#202020;stroke-width:2;" x="88.589752" xlink:href="#m12827f2344" y="150.966619"/>
     <use style="fill:#b8b8b8;stroke:#202020;stroke-width:2;" x="263.524644" xlink:href="#m12827f2344" y="139.289467"/>
     <use style="fill:#b8b8b8;stroke:#202020;stroke-width:2;" x="129.713386" xlink:href="#m12827f2344" y="85.48124"/>
     <use style="fill:#b8b8b8;stroke:#202020;stroke-width:2;" x="195.142747" xlink:href="#m12827f2344" y="205.854467"/>
     <use style="fill:#b8b8b8;stroke:#202020;stroke-width:2;" x="155.471777" xlink:href="#m12827f2344" y="69.911485"/>
     <use style="fill:#b8b8b8;stroke:#202020;stroke-width:2;" x="233.533633" xlink:href="#m12827f2344" y="199.174188"/>
     <use style="fill:#b8b8b8;stroke:#202020;stroke-width:2;" x="377.389118" xlink:href="#m12827f2344" y="136.167839"/>
     <use style="fill:#b8b8b8;stroke:#202020;stroke-width:2;" x="88.614107" xlink:href="#m12827f2344" y="175.323166"/>
     <use style="fill:#b8b8b8;stroke:#202020;stroke-width:2;" x="299.579131" xlink:href="#m12827f2344" y="183.75938"/>
     <use style="fill:#b8b8b8;stroke:#202020;stroke-width:2;" x="190.063889" xlink:href="#m12827f2344" y="64.564364"/>
     <use style="fill:#b8b8b8;stroke:#202020;stroke-width:2;" x="215.971221" xlink:href="#m12827f2344" y="230.376611"/>
     <use style="fill:#b8b8b8;stroke:#202020;stroke-width:2;" x="163.722503" xlink:href="#m12827f2344" y="153.759332"/>
     <use style="fill:#b8b8b8;stroke:#202020;stroke-width:2;" x="132.904889" xlink:href="#m12827f2344" y="243.811969"/>
     <use style="fill:#b8b8b8;stroke:#202020;stroke-width:2;" x="383.730248" xlink:href="#m12827f2344" y="162.205125"/>
     <use style="fill:#b8b8b8;stroke:#202020;stroke-width:2;" x="225.947207" xlink:href="#m12827f2344" y="168.45322"/>
    </g>
   </g>
   <g id="PathCollection_2">
    <g clip-path="url(#pd32255298b)">
     <use style="fill:#b8b8b8;stroke:#202020;stroke-width:2;" x="242.124118" xlink:href="#m12827f2344" y="106.091778"/>
     <use style="fill:#b8b8b8;stroke:#202020;stroke-width:2;" x="195.142747" xlink:href="#m12827f2344" y="205.854467"/>
     <use style="fill:#b8b8b8;stroke:#202020;stroke-width:2;" x="233.533633" xlink:href="#m12827f2344" y="199.174188"/>
     <use style="fill:#b8b8b8;stroke:#202020;stroke-width:2;" x="215.971221" xlink:href="#m12827f2344" y="230.376611"/>
     <use style="fill:#b8b8b8;stroke:#202020;stroke-width:2;" x="225.947207" xlink:href="#m12827f2344" y="168.45322"/>
     <use style="fill:#b8b8b8;stroke:#202020;stroke-width:2;" x="224.987455" xlink:href="#m12827f2344" y="136.736608"/>
     <use style="fill:#b8b8b8;stroke:#202020;stroke-width:2;" x="263.524644" xlink:href="#m12827f2344" y="139.289467"/>
    </g>
   </g>
   <g id="PathCollection_3">
    <defs>
     <path d="M 0 20 
C 5.304062 20 10.391597 17.892674 14.142136 14.142136 
C 17.892674 10.391597 20 5.304062 20 0 
C 20 -5.304062 17.892674 -10.391597 14.142136 -14.142136 
C 10.391597 -17.892674 5.304062 -20 0 -20 
C -5.304062 -20 -10.391597 -17.892674 -14.142136 -14.142136 
C -17.892674 -10.391597 -20 -5.304062 -20 0 
C -20 5.304062 -17.892674 10.391597 -14.142136 14.142136 
C -10.391597 17.892674 -5.304062 20 0 20 
z
" id="m8c7667721a" style="stroke:#202020;stroke-width:1;"/>
    </defs>
    <g clip-path="url(#pd32255298b)">
     <use style="fill:#989898;stroke:#202020;stroke-width:7;" x="163.722503" xlink:href="#m8c7667721a" y="153.759332"/>
     <use style="fill:#989898;stroke:#000000;stroke-width:7;" x="299.579131" xlink:href="#m8c7667721a" y="183.75938"/>
    </g>
   </g>
   <g id="text_1">
    <g clip-path="url(#pd32255298b)">
     <!-- notion -->
     <defs>
      <path d="M 54.890625 33.015625 
L 54.890625 0 
L 45.90625 0 
L 45.90625 32.71875 
Q 45.90625 40.484375 42.875 44.328125 
Q 39.84375 48.1875 33.796875 48.1875 
Q 26.515625 48.1875 22.3125 43.546875 
Q 18.109375 38.921875 18.109375 30.90625 
L 18.109375 0 
L 9.078125 0 
L 9.078125 54.6875 
L 18.109375 54.6875 
L 18.109375 46.1875 
Q 21.34375 51.125 25.703125 53.5625 
Q 30.078125 56 35.796875 56 
Q 45.21875 56 50.046875 50.171875 
Q 54.890625 44.34375 54.890625 33.015625 
z
" id="DejaVuSans-6e"/>
      <path d="M 30.609375 48.390625 
Q 23.390625 48.390625 19.1875 42.75 
Q 14.984375 37.109375 14.984375 27.296875 
Q 14.984375 17.484375 19.15625 11.84375 
Q 23.34375 6.203125 30.609375 6.203125 
Q 37.796875 6.203125 41.984375 11.859375 
Q 46.1875 17.53125 46.1875 27.296875 
Q 46.1875 37.015625 41.984375 42.703125 
Q 37.796875 48.390625 30.609375 48.390625 
z
M 30.609375 56 
Q 42.328125 56 49.015625 48.375 
Q 55.71875 40.765625 55.71875 27.296875 
Q 55.71875 13.875 49.015625 6.21875 
Q 42.328125 -1.421875 30.609375 -1.421875 
Q 18.84375 -1.421875 12.171875 6.21875 
Q 5.515625 13.875 5.515625 27.296875 
Q 5.515625 40.765625 12.171875 48.375 
Q 18.84375 56 30.609375 56 
z
" id="DejaVuSans-6f"/>
      <path d="M 18.3125 70.21875 
L 18.3125 54.6875 
L 36.8125 54.6875 
L 36.8125 47.703125 
L 18.3125 47.703125 
L 18.3125 18.015625 
Q 18.3125 11.328125 20.140625 9.421875 
Q 21.96875 7.515625 27.59375 7.515625 
L 36.8125 7.515625 
L 36.8125 0 
L 27.59375 0 
Q 17.1875 0 13.234375 3.875 
Q 9.28125 7.765625 9.28125 18.015625 
L 9.28125 47.703125 
L 2.6875 47.703125 
L 2.6875 54.6875 
L 9.28125 54.6875 
L 9.28125 70.21875 
z
" id="DejaVuSans-74"/>
      <path d="M 9.421875 54.6875 
L 18.40625 54.6875 
L 18.40625 0 
L 9.421875 0 
z
M 9.421875 75.984375 
L 18.40625 75.984375 
L 18.40625 64.59375 
L 9.421875 64.59375 
z
" id="DejaVuSans-69"/>
     </defs>
     <g transform="translate(232.640837 107.747403)scale(0.06 -0.06)">
      <use xlink:href="#DejaVuSans-6e"/>
      <use x="63.378906" xlink:href="#DejaVuSans-6f"/>
      <use x="124.560547" xlink:href="#DejaVuSans-74"/>
      <use x="163.769531" xlink:href="#DejaVuSans-69"/>
      <use x="191.552734" xlink:href="#DejaVuSans-6f"/>
      <use x="252.734375" xlink:href="#DejaVuSans-6e"/>
     </g>
    </g>
   </g>
   <g id="text_2">
    <g clip-path="url(#pd32255298b)">
     <!-- orientation -->
     <defs>
      <path d="M 41.109375 46.296875 
Q 39.59375 47.171875 37.8125 47.578125 
Q 36.03125 48 33.890625 48 
Q 26.265625 48 22.1875 43.046875 
Q 18.109375 38.09375 18.109375 28.8125 
L 18.109375 0 
L 9.078125 0 
L 9.078125 54.6875 
L 18.109375 54.6875 
L 18.109375 46.1875 
Q 20.953125 51.171875 25.484375 53.578125 
Q 30.03125 56 36.53125 56 
Q 37.453125 56 38.578125 55.875 
Q 39.703125 55.765625 41.0625 55.515625 
z
" id="DejaVuSans-72"/>
      <path d="M 56.203125 29.59375 
L 56.203125 25.203125 
L 14.890625 25.203125 
Q 15.484375 15.921875 20.484375 11.0625 
Q 25.484375 6.203125 34.421875 6.203125 
Q 39.59375 6.203125 44.453125 7.46875 
Q 49.3125 8.734375 54.109375 11.28125 
L 54.109375 2.78125 
Q 49.265625 0.734375 44.1875 -0.34375 
Q 39.109375 -1.421875 33.890625 -1.421875 
Q 20.796875 -1.421875 13.15625 6.1875 
Q 5.515625 13.8125 5.515625 26.8125 
Q 5.515625 40.234375 12.765625 48.109375 
Q 20.015625 56 32.328125 56 
Q 43.359375 56 49.78125 48.890625 
Q 56.203125 41.796875 56.203125 29.59375 
z
M 47.21875 32.234375 
Q 47.125 39.59375 43.09375 43.984375 
Q 39.0625 48.390625 32.421875 48.390625 
Q 24.90625 48.390625 20.390625 44.140625 
Q 15.875 39.890625 15.1875 32.171875 
z
" id="DejaVuSans-65"/>
      <path d="M 34.28125 27.484375 
Q 23.390625 27.484375 19.1875 25 
Q 14.984375 22.515625 14.984375 16.5 
Q 14.984375 11.71875 18.140625 8.90625 
Q 21.296875 6.109375 26.703125 6.109375 
Q 34.1875 6.109375 38.703125 11.40625 
Q 43.21875 16.703125 43.21875 25.484375 
L 43.21875 27.484375 
z
M 52.203125 31.203125 
L 52.203125 0 
L 43.21875 0 
L 43.21875 8.296875 
Q 40.140625 3.328125 35.546875 0.953125 
Q 30.953125 -1.421875 24.3125 -1.421875 
Q 15.921875 -1.421875 10.953125 3.296875 
Q 6 8.015625 6 15.921875 
Q 6 25.140625 12.171875 29.828125 
Q 18.359375 34.515625 30.609375 34.515625 
L 43.21875 34.515625 
L 43.21875 35.40625 
Q 43.21875 41.609375 39.140625 45 
Q 35.0625 48.390625 27.6875 48.390625 
Q 23 48.390625 18.546875 47.265625 
Q 14.109375 46.140625 10.015625 43.890625 
L 10.015625 52.203125 
Q 14.9375 54.109375 19.578125 55.046875 
Q 24.21875 56 28.609375 56 
Q 40.484375 56 46.34375 49.84375 
Q 52.203125 43.703125 52.203125 31.203125 
z
" id="DejaVuSans-61"/>
     </defs>
     <g transform="translate(357.799071 216.291659)scale(0.06 -0.06)">
      <use xlink:href="#DejaVuSans-6f"/>
      <use x="61.181641" xlink:href="#DejaVuSans-72"/>
      <use x="102.294922" xlink:href="#DejaVuSans-69"/>
      <use x="130.078125" xlink:href="#DejaVuSans-65"/>
      <use x="191.601562" xlink:href="#DejaVuSans-6e"/>
      <use x="254.980469" xlink:href="#DejaVuSans-74"/>
      <use x="294.189453" xlink:href="#DejaVuSans-61"/>
      <use x="355.46875" xlink:href="#DejaVuSans-74"/>
      <use x="394.677734" xlink:href="#DejaVuSans-69"/>
      <use x="422.460938" xlink:href="#DejaVuSans-6f"/>
      <use x="483.642578" xlink:href="#DejaVuSans-6e"/>
     </g>
    </g>
   </g>
   <g id="text_3">
    <g clip-path="url(#pd32255298b)">
     <!-- contresens -->
     <defs>
      <path d="M 48.78125 52.59375 
L 48.78125 44.1875 
Q 44.96875 46.296875 41.140625 47.34375 
Q 37.3125 48.390625 33.40625 48.390625 
Q 24.65625 48.390625 19.8125 42.84375 
Q 14.984375 37.3125 14.984375 27.296875 
Q 14.984375 17.28125 19.8125 11.734375 
Q 24.65625 6.203125 33.40625 6.203125 
Q 37.3125 6.203125 41.140625 7.25 
Q 44.96875 8.296875 48.78125 10.40625 
L 48.78125 2.09375 
Q 45.015625 0.34375 40.984375 -0.53125 
Q 36.96875 -1.421875 32.421875 -1.421875 
Q 20.0625 -1.421875 12.78125 6.34375 
Q 5.515625 14.109375 5.515625 27.296875 
Q 5.515625 40.671875 12.859375 48.328125 
Q 20.21875 56 33.015625 56 
Q 37.15625 56 41.109375 55.140625 
Q 45.0625 54.296875 48.78125 52.59375 
z
" id="DejaVuSans-63"/>
      <path d="M 44.28125 53.078125 
L 44.28125 44.578125 
Q 40.484375 46.53125 36.375 47.5 
Q 32.28125 48.484375 27.875 48.484375 
Q 21.1875 48.484375 17.84375 46.4375 
Q 14.5 44.390625 14.5 40.28125 
Q 14.5 37.15625 16.890625 35.375 
Q 19.28125 33.59375 26.515625 31.984375 
L 29.59375 31.296875 
Q 39.15625 29.25 43.1875 25.515625 
Q 47.21875 21.78125 47.21875 15.09375 
Q 47.21875 7.46875 41.1875 3.015625 
Q 35.15625 -1.421875 24.609375 -1.421875 
Q 20.21875 -1.421875 15.453125 -0.5625 
Q 10.6875 0.296875 5.421875 2 
L 5.421875 11.28125 
Q 10.40625 8.6875 15.234375 7.390625 
Q 20.0625 6.109375 24.8125 6.109375 
Q 31.15625 6.109375 34.5625 8.28125 
Q 37.984375 10.453125 37.984375 14.40625 
Q 37.984375 18.0625 35.515625 20.015625 
Q 33.0625 21.96875 24.703125 23.78125 
L 21.578125 24.515625 
Q 13.234375 26.265625 9.515625 29.90625 
Q 5.8125 33.546875 5.8125 39.890625 
Q 5.8125 47.609375 11.28125 51.796875 
Q 16.75 56 26.8125 56 
Q 31.78125 56 36.171875 55.265625 
Q 40.578125 54.546875 44.28125 53.078125 
z
" id="DejaVuSans-73"/>
     </defs>
     <g transform="translate(178.629153 207.510092)scale(0.06 -0.06)">
      <use xlink:href="#DejaVuSans-63"/>
      <use x="54.980469" xlink:href="#DejaVuSans-6f"/>
      <use x="116.162109" xlink:href="#DejaVuSans-6e"/>
      <use x="179.541016" xlink:href="#DejaVuSans-74"/>
      <use x="218.75" xlink:href="#DejaVuSans-72"/>
      <use x="259.832031" xlink:href="#DejaVuSans-65"/>
      <use x="321.355469" xlink:href="#DejaVuSans-73"/>
      <use x="373.455078" xlink:href="#DejaVuSans-65"/>
      <use x="434.978516" xlink:href="#DejaVuSans-6e"/>
      <use x="498.357422" xlink:href="#DejaVuSans-73"/>
     </g>
    </g>
   </g>
   <g id="text_4">
    <g clip-path="url(#pd32255298b)">
     <!-- instinct -->
     <g transform="translate(325.825189 259.906344)scale(0.06 -0.06)">
      <use xlink:href="#DejaVuSans-69"/>
      <use x="27.783203" xlink:href="#DejaVuSans-6e"/>
      <use x="91.162109" xlink:href="#DejaVuSans-73"/>
      <use x="143.261719" xlink:href="#DejaVuSans-74"/>
      <use x="182.470703" xlink:href="#DejaVuSans-69"/>
      <use x="210.253906" xlink:href="#DejaVuSans-6e"/>
      <use x="273.632812" xlink:href="#DejaVuSans-63"/>
      <use x="328.613281" xlink:href="#DejaVuSans-74"/>
     </g>
    </g>
   </g>
   <g id="text_5">
    <g clip-path="url(#pd32255298b)">
     <!-- mot -->
     <defs>
      <path d="M 52 44.1875 
Q 55.375 50.25 60.0625 53.125 
Q 64.75 56 71.09375 56 
Q 79.640625 56 84.28125 50.015625 
Q 88.921875 44.046875 88.921875 33.015625 
L 88.921875 0 
L 79.890625 0 
L 79.890625 32.71875 
Q 79.890625 40.578125 77.09375 44.375 
Q 74.3125 48.1875 68.609375 48.1875 
Q 61.625 48.1875 57.5625 43.546875 
Q 53.515625 38.921875 53.515625 30.90625 
L 53.515625 0 
L 44.484375 0 
L 44.484375 32.71875 
Q 44.484375 40.625 41.703125 44.40625 
Q 38.921875 48.1875 33.109375 48.1875 
Q 26.21875 48.1875 22.15625 43.53125 
Q 18.109375 38.875 18.109375 30.90625 
L 18.109375 0 
L 9.078125 0 
L 9.078125 54.6875 
L 18.109375 54.6875 
L 18.109375 46.1875 
Q 21.1875 51.21875 25.484375 53.609375 
Q 29.78125 56 35.6875 56 
Q 41.65625 56 45.828125 52.96875 
Q 50 49.953125 52 44.1875 
z
" id="DejaVuSans-6d"/>
     </defs>
     <g transform="translate(100.598996 224.838435)scale(0.06 -0.06)">
      <use xlink:href="#DejaVuSans-6d"/>
      <use x="97.412109" xlink:href="#DejaVuSans-6f"/>
      <use x="158.59375" xlink:href="#DejaVuSans-74"/>
     </g>
    </g>
   </g>
   <g id="text_6">
    <g clip-path="url(#pd32255298b)">
     <!-- étymologie -->
     <defs>
      <path d="M 56.203125 29.59375 
L 56.203125 25.203125 
L 14.890625 25.203125 
Q 15.484375 15.921875 20.484375 11.0625 
Q 25.484375 6.203125 34.421875 6.203125 
Q 39.59375 6.203125 44.453125 7.46875 
Q 49.3125 8.734375 54.109375 11.28125 
L 54.109375 2.78125 
Q 49.265625 0.734375 44.1875 -0.34375 
Q 39.109375 -1.421875 33.890625 -1.421875 
Q 20.796875 -1.421875 13.15625 6.1875 
Q 5.515625 13.8125 5.515625 26.8125 
Q 5.515625 40.234375 12.765625 48.109375 
Q 20.015625 56 32.328125 56 
Q 43.359375 56 49.78125 48.890625 
Q 56.203125 41.796875 56.203125 29.59375 
z
M 47.21875 32.234375 
Q 47.125 39.59375 43.09375 43.984375 
Q 39.0625 48.390625 32.421875 48.390625 
Q 24.90625 48.390625 20.390625 44.140625 
Q 15.875 39.890625 15.1875 32.171875 
z
M 38.53125 79.984375 
L 48.25 79.984375 
L 32.34375 61.625 
L 24.859375 61.625 
z
" id="DejaVuSans-e9"/>
      <path d="M 32.171875 -5.078125 
Q 28.375 -14.84375 24.75 -17.8125 
Q 21.140625 -20.796875 15.09375 -20.796875 
L 7.90625 -20.796875 
L 7.90625 -13.28125 
L 13.1875 -13.28125 
Q 16.890625 -13.28125 18.9375 -11.515625 
Q 21 -9.765625 23.484375 -3.21875 
L 25.09375 0.875 
L 2.984375 54.6875 
L 12.5 54.6875 
L 29.59375 11.921875 
L 46.6875 54.6875 
L 56.203125 54.6875 
z
" id="DejaVuSans-79"/>
      <path d="M 9.421875 75.984375 
L 18.40625 75.984375 
L 18.40625 0 
L 9.421875 0 
z
" id="DejaVuSans-6c"/>
      <path d="M 45.40625 27.984375 
Q 45.40625 37.75 41.375 43.109375 
Q 37.359375 48.484375 30.078125 48.484375 
Q 22.859375 48.484375 18.828125 43.109375 
Q 14.796875 37.75 14.796875 27.984375 
Q 14.796875 18.265625 18.828125 12.890625 
Q 22.859375 7.515625 30.078125 7.515625 
Q 37.359375 7.515625 41.375 12.890625 
Q 45.40625 18.265625 45.40625 27.984375 
z
M 54.390625 6.78125 
Q 54.390625 -7.171875 48.1875 -13.984375 
Q 42 -20.796875 29.203125 -20.796875 
Q 24.46875 -20.796875 20.265625 -20.09375 
Q 16.0625 -19.390625 12.109375 -17.921875 
L 12.109375 -9.1875 
Q 16.0625 -11.328125 19.921875 -12.34375 
Q 23.78125 -13.375 27.78125 -13.375 
Q 36.625 -13.375 41.015625 -8.765625 
Q 45.40625 -4.15625 45.40625 5.171875 
L 45.40625 9.625 
Q 42.625 4.78125 38.28125 2.390625 
Q 33.9375 0 27.875 0 
Q 17.828125 0 11.671875 7.65625 
Q 5.515625 15.328125 5.515625 27.984375 
Q 5.515625 40.671875 11.671875 48.328125 
Q 17.828125 56 27.875 56 
Q 33.9375 56 38.28125 53.609375 
Q 42.625 51.21875 45.40625 46.390625 
L 45.40625 54.6875 
L 54.390625 54.6875 
z
" id="DejaVuSans-67"/>
     </defs>
     <g transform="translate(116.096452 245.587594)scale(0.06 -0.06)">
      <use xlink:href="#DejaVuSans-e9"/>
      <use x="61.523438" xlink:href="#DejaVuSans-74"/>
      <use x="100.732422" xlink:href="#DejaVuSans-79"/>
      <use x="159.912109" xlink:href="#DejaVuSans-6d"/>
      <use x="257.324219" xlink:href="#DejaVuSans-6f"/>
      <use x="318.505859" xlink:href="#DejaVuSans-6c"/>
      <use x="346.289062" xlink:href="#DejaVuSans-6f"/>
      <use x="407.470703" xlink:href="#DejaVuSans-67"/>
      <use x="470.947266" xlink:href="#DejaVuSans-69"/>
      <use x="498.730469" xlink:href="#DejaVuSans-65"/>
     </g>
    </g>
   </g>
   <g id="text_7">
    <g clip-path="url(#pd32255298b)">
     <!-- règles -->
     <defs>
      <path d="M 56.203125 29.59375 
L 56.203125 25.203125 
L 14.890625 25.203125 
Q 15.484375 15.921875 20.484375 11.0625 
Q 25.484375 6.203125 34.421875 6.203125 
Q 39.59375 6.203125 44.453125 7.46875 
Q 49.3125 8.734375 54.109375 11.28125 
L 54.109375 2.78125 
Q 49.265625 0.734375 44.1875 -0.34375 
Q 39.109375 -1.421875 33.890625 -1.421875 
Q 20.796875 -1.421875 13.15625 6.1875 
Q 5.515625 13.8125 5.515625 26.8125 
Q 5.515625 40.234375 12.765625 48.109375 
Q 20.015625 56 32.328125 56 
Q 43.359375 56 49.78125 48.890625 
Q 56.203125 41.796875 56.203125 29.59375 
z
M 47.21875 32.234375 
Q 47.125 39.59375 43.09375 43.984375 
Q 39.0625 48.390625 32.421875 48.390625 
Q 24.90625 48.390625 20.390625 44.140625 
Q 15.875 39.890625 15.1875 32.171875 
z
M 24.671875 79.984375 
L 38.4375 61.71875 
L 30.96875 61.71875 
L 15.046875 79.984375 
z
" id="DejaVuSans-e8"/>
     </defs>
     <g transform="translate(371.58737 190.371889)scale(0.06 -0.06)">
      <use xlink:href="#DejaVuSans-72"/>
      <use x="41.082031" xlink:href="#DejaVuSans-e8"/>
      <use x="102.605469" xlink:href="#DejaVuSans-67"/>
      <use x="166.082031" xlink:href="#DejaVuSans-6c"/>
      <use x="193.865234" xlink:href="#DejaVuSans-65"/>
      <use x="255.388672" xlink:href="#DejaVuSans-73"/>
     </g>
    </g>
   </g>
   <g id="text_8">
    <g clip-path="url(#pd32255298b)">
     <!-- conscience -->
     <g transform="translate(253.623573 286.147261)scale(0.06 -0.06)">
      <use xlink:href="#DejaVuSans-63"/>
      <use x="54.980469" xlink:href="#DejaVuSans-6f"/>
      <use x="116.162109" xlink:href="#DejaVuSans-6e"/>
      <use x="179.541016" xlink:href="#DejaVuSans-73"/>
      <use x="231.640625" xlink:href="#DejaVuSans-63"/>
      <use x="286.621094" xlink:href="#DejaVuSans-69"/>
      <use x="314.404297" xlink:href="#DejaVuSans-65"/>
      <use x="375.927734" xlink:href="#DejaVuSans-6e"/>
      <use x="439.306641" xlink:href="#DejaVuSans-63"/>
      <use x="494.287109" xlink:href="#DejaVuSans-65"/>
     </g>
    </g>
   </g>
   <g id="text_9">
    <g clip-path="url(#pd32255298b)">
     <!-- dénotation -->
     <defs>
      <path d="M 45.40625 46.390625 
L 45.40625 75.984375 
L 54.390625 75.984375 
L 54.390625 0 
L 45.40625 0 
L 45.40625 8.203125 
Q 42.578125 3.328125 38.25 0.953125 
Q 33.9375 -1.421875 27.875 -1.421875 
Q 17.96875 -1.421875 11.734375 6.484375 
Q 5.515625 14.40625 5.515625 27.296875 
Q 5.515625 40.1875 11.734375 48.09375 
Q 17.96875 56 27.875 56 
Q 33.9375 56 38.25 53.625 
Q 42.578125 51.265625 45.40625 46.390625 
z
M 14.796875 27.296875 
Q 14.796875 17.390625 18.875 11.75 
Q 22.953125 6.109375 30.078125 6.109375 
Q 37.203125 6.109375 41.296875 11.75 
Q 45.40625 17.390625 45.40625 27.296875 
Q 45.40625 37.203125 41.296875 42.84375 
Q 37.203125 48.484375 30.078125 48.484375 
Q 22.953125 48.484375 18.875 42.84375 
Q 14.796875 37.203125 14.796875 27.296875 
z
" id="DejaVuSans-64"/>
     </defs>
     <g transform="translate(93.491844 106.469608)scale(0.06 -0.06)">
      <use xlink:href="#DejaVuSans-64"/>
      <use x="63.476562" xlink:href="#DejaVuSans-e9"/>
      <use x="125" xlink:href="#DejaVuSans-6e"/>
      <use x="188.378906" xlink:href="#DejaVuSans-6f"/>
      <use x="249.560547" xlink:href="#DejaVuSans-74"/>
      <use x="288.769531" xlink:href="#DejaVuSans-61"/>
      <use x="350.048828" xlink:href="#DejaVuSans-74"/>
      <use x="389.257812" xlink:href="#DejaVuSans-69"/>
      <use x="417.041016" xlink:href="#DejaVuSans-6f"/>
      <use x="478.222656" xlink:href="#DejaVuSans-6e"/>
     </g>
    </g>
   </g>
   <g id="text_10">
    <g clip-path="url(#pd32255298b)">
     <!-- syntaxe -->
     <defs>
      <path d="M 54.890625 54.6875 
L 35.109375 28.078125 
L 55.90625 0 
L 45.3125 0 
L 29.390625 21.484375 
L 13.484375 0 
L 2.875 0 
L 24.125 28.609375 
L 4.6875 54.6875 
L 15.28125 54.6875 
L 29.78125 35.203125 
L 44.28125 54.6875 
z
" id="DejaVuSans-78"/>
     </defs>
     <g transform="translate(324.025187 87.224513)scale(0.06 -0.06)">
      <use xlink:href="#DejaVuSans-73"/>
      <use x="52.099609" xlink:href="#DejaVuSans-79"/>
      <use x="111.279297" xlink:href="#DejaVuSans-6e"/>
      <use x="174.658203" xlink:href="#DejaVuSans-74"/>
      <use x="213.867188" xlink:href="#DejaVuSans-61"/>
      <use x="275.146484" xlink:href="#DejaVuSans-78"/>
      <use x="334.279297" xlink:href="#DejaVuSans-65"/>
     </g>
    </g>
   </g>
   <g id="text_11">
    <g clip-path="url(#pd32255298b)">
     <!-- esprit -->
     <defs>
      <path d="M 18.109375 8.203125 
L 18.109375 -20.796875 
L 9.078125 -20.796875 
L 9.078125 54.6875 
L 18.109375 54.6875 
L 18.109375 46.390625 
Q 20.953125 51.265625 25.265625 53.625 
Q 29.59375 56 35.59375 56 
Q 45.5625 56 51.78125 48.09375 
Q 58.015625 40.1875 58.015625 27.296875 
Q 58.015625 14.40625 51.78125 6.484375 
Q 45.5625 -1.421875 35.59375 -1.421875 
Q 29.59375 -1.421875 25.265625 0.953125 
Q 20.953125 3.328125 18.109375 8.203125 
z
M 48.6875 27.296875 
Q 48.6875 37.203125 44.609375 42.84375 
Q 40.53125 48.484375 33.40625 48.484375 
Q 26.265625 48.484375 22.1875 42.84375 
Q 18.109375 37.203125 18.109375 27.296875 
Q 18.109375 17.390625 22.1875 11.75 
Q 26.265625 6.109375 33.40625 6.109375 
Q 40.53125 6.109375 44.609375 11.75 
Q 48.6875 17.390625 48.6875 27.296875 
z
" id="DejaVuSans-70"/>
     </defs>
     <g transform="translate(348.781783 238.778795)scale(0.06 -0.06)">
      <use xlink:href="#DejaVuSans-65"/>
      <use x="61.523438" xlink:href="#DejaVuSans-73"/>
      <use x="113.623047" xlink:href="#DejaVuSans-70"/>
      <use x="177.099609" xlink:href="#DejaVuSans-72"/>
      <use x="218.212891" xlink:href="#DejaVuSans-69"/>
      <use x="245.996094" xlink:href="#DejaVuSans-74"/>
     </g>
    </g>
   </g>
   <g id="text_12">
    <g clip-path="url(#pd32255298b)">
     <!-- définition -->
     <defs>
      <path d="M 37.109375 75.984375 
L 37.109375 68.5 
L 28.515625 68.5 
Q 23.6875 68.5 21.796875 66.546875 
Q 19.921875 64.59375 19.921875 59.515625 
L 19.921875 54.6875 
L 34.71875 54.6875 
L 34.71875 47.703125 
L 19.921875 47.703125 
L 19.921875 0 
L 10.890625 0 
L 10.890625 47.703125 
L 2.296875 47.703125 
L 2.296875 54.6875 
L 10.890625 54.6875 
L 10.890625 58.5 
Q 10.890625 67.625 15.140625 71.796875 
Q 19.390625 75.984375 28.609375 75.984375 
z
" id="DejaVuSans-66"/>
     </defs>
     <g transform="translate(78.039707 201.958226)scale(0.06 -0.06)">
      <use xlink:href="#DejaVuSans-64"/>
      <use x="63.476562" xlink:href="#DejaVuSans-e9"/>
      <use x="125" xlink:href="#DejaVuSans-66"/>
      <use x="160.205078" xlink:href="#DejaVuSans-69"/>
      <use x="187.988281" xlink:href="#DejaVuSans-6e"/>
      <use x="251.367188" xlink:href="#DejaVuSans-69"/>
      <use x="279.150391" xlink:href="#DejaVuSans-74"/>
      <use x="318.359375" xlink:href="#DejaVuSans-69"/>
      <use x="346.142578" xlink:href="#DejaVuSans-6f"/>
      <use x="407.324219" xlink:href="#DejaVuSans-6e"/>
     </g>
    </g>
   </g>
   <g id="text_13">
    <g clip-path="url(#pd32255298b)">
     <!-- connotation -->
     <g transform="translate(79.658603 128.992556)scale(0.06 -0.06)">
      <use xlink:href="#DejaVuSans-63"/>
      <use x="54.980469" xlink:href="#DejaVuSans-6f"/>
      <use x="116.162109" xlink:href="#DejaVuSans-6e"/>
      <use x="179.541016" xlink:href="#DejaVuSans-6e"/>
      <use x="242.919922" xlink:href="#DejaVuSans-6f"/>
      <use x="304.101562" xlink:href="#DejaVuSans-74"/>
      <use x="343.310547" xlink:href="#DejaVuSans-61"/>
      <use x="404.589844" xlink:href="#DejaVuSans-74"/>
      <use x="443.798828" xlink:href="#DejaVuSans-69"/>
      <use x="471.582031" xlink:href="#DejaVuSans-6f"/>
      <use x="532.763672" xlink:href="#DejaVuSans-6e"/>
     </g>
    </g>
   </g>
   <g id="text_14">
    <g clip-path="url(#pd32255298b)">
     <!-- signification -->
     <g transform="translate(206.82808 138.392233)scale(0.06 -0.06)">
      <use xlink:href="#DejaVuSans-73"/>
      <use x="52.099609" xlink:href="#DejaVuSans-69"/>
      <use x="79.882812" xlink:href="#DejaVuSans-67"/>
      <use x="143.359375" xlink:href="#DejaVuSans-6e"/>
      <use x="206.738281" xlink:href="#DejaVuSans-69"/>
      <use x="234.521484" xlink:href="#DejaVuSans-66"/>
      <use x="269.726562" xlink:href="#DejaVuSans-69"/>
      <use x="297.509766" xlink:href="#DejaVuSans-63"/>
      <use x="352.490234" xlink:href="#DejaVuSans-61"/>
      <use x="413.769531" xlink:href="#DejaVuSans-74"/>
      <use x="452.978516" xlink:href="#DejaVuSans-69"/>
      <use x="480.761719" xlink:href="#DejaVuSans-6f"/>
      <use x="541.943359" xlink:href="#DejaVuSans-6e"/>
     </g>
    </g>
   </g>
   <g id="text_15">
    <g clip-path="url(#pd32255298b)">
     <!-- intuitif -->
     <defs>
      <path d="M 8.5 21.578125 
L 8.5 54.6875 
L 17.484375 54.6875 
L 17.484375 21.921875 
Q 17.484375 14.15625 20.5 10.265625 
Q 23.53125 6.390625 29.59375 6.390625 
Q 36.859375 6.390625 41.078125 11.03125 
Q 45.3125 15.671875 45.3125 23.6875 
L 45.3125 54.6875 
L 54.296875 54.6875 
L 54.296875 0 
L 45.3125 0 
L 45.3125 8.40625 
Q 42.046875 3.421875 37.71875 1 
Q 33.40625 -1.421875 27.6875 -1.421875 
Q 18.265625 -1.421875 13.375 4.4375 
Q 8.5 10.296875 8.5 21.578125 
z
M 31.109375 56 
z
" id="DejaVuSans-75"/>
     </defs>
     <g transform="translate(78.878658 152.622244)scale(0.06 -0.06)">
      <use xlink:href="#DejaVuSans-69"/>
      <use x="27.783203" xlink:href="#DejaVuSans-6e"/>
      <use x="91.162109" xlink:href="#DejaVuSans-74"/>
      <use x="130.371094" xlink:href="#DejaVuSans-75"/>
      <use x="193.75" xlink:href="#DejaVuSans-69"/>
      <use x="221.533203" xlink:href="#DejaVuSans-74"/>
      <use x="260.742188" xlink:href="#DejaVuSans-69"/>
      <use x="288.525391" xlink:href="#DejaVuSans-66"/>
     </g>
    </g>
   </g>
   <g id="text_16">
    <g clip-path="url(#pd32255298b)">
     <!-- inverse -->
     <defs>
      <path d="M 2.984375 54.6875 
L 12.5 54.6875 
L 29.59375 8.796875 
L 46.6875 54.6875 
L 56.203125 54.6875 
L 35.6875 0 
L 23.484375 0 
z
" id="DejaVuSans-76"/>
     </defs>
     <g transform="translate(252.526363 140.945092)scale(0.06 -0.06)">
      <use xlink:href="#DejaVuSans-69"/>
      <use x="27.783203" xlink:href="#DejaVuSans-6e"/>
      <use x="91.162109" xlink:href="#DejaVuSans-76"/>
      <use x="150.341797" xlink:href="#DejaVuSans-65"/>
      <use x="211.865234" xlink:href="#DejaVuSans-72"/>
      <use x="252.978516" xlink:href="#DejaVuSans-73"/>
      <use x="305.078125" xlink:href="#DejaVuSans-65"/>
     </g>
    </g>
   </g>
   <g id="text_17">
    <g clip-path="url(#pd32255298b)">
     <!-- terme -->
     <g transform="translate(120.690417 87.136865)scale(0.06 -0.06)">
      <use xlink:href="#DejaVuSans-74"/>
      <use x="39.208984" xlink:href="#DejaVuSans-65"/>
      <use x="100.732422" xlink:href="#DejaVuSans-72"/>
      <use x="141.830078" xlink:href="#DejaVuSans-6d"/>
      <use x="239.242188" xlink:href="#DejaVuSans-65"/>
     </g>
    </g>
   </g>
   <g id="text_18">
    <g clip-path="url(#pd32255298b)">
     <!-- contraire -->
     <g transform="translate(349.592341 113.358197)scale(0.06 -0.06)">
      <use xlink:href="#DejaVuSans-63"/>
      <use x="54.980469" xlink:href="#DejaVuSans-6f"/>
      <use x="116.162109" xlink:href="#DejaVuSans-6e"/>
      <use x="179.541016" xlink:href="#DejaVuSans-74"/>
      <use x="218.75" xlink:href="#DejaVuSans-72"/>
      <use x="259.863281" xlink:href="#DejaVuSans-61"/>
      <use x="321.142578" xlink:href="#DejaVuSans-69"/>
      <use x="348.925781" xlink:href="#DejaVuSans-72"/>
      <use x="390.007812" xlink:href="#DejaVuSans-65"/>
     </g>
    </g>
   </g>
   <g id="text_19">
    <g clip-path="url(#pd32255298b)">
     <!-- expression -->
     <g transform="translate(139.171934 71.56711)scale(0.06 -0.06)">
      <use xlink:href="#DejaVuSans-65"/>
      <use x="61.507812" xlink:href="#DejaVuSans-78"/>
      <use x="120.6875" xlink:href="#DejaVuSans-70"/>
      <use x="184.164062" xlink:href="#DejaVuSans-72"/>
      <use x="225.246094" xlink:href="#DejaVuSans-65"/>
      <use x="286.769531" xlink:href="#DejaVuSans-73"/>
      <use x="338.869141" xlink:href="#DejaVuSans-73"/>
      <use x="390.96875" xlink:href="#DejaVuSans-69"/>
      <use x="418.751953" xlink:href="#DejaVuSans-6f"/>
      <use x="479.933594" xlink:href="#DejaVuSans-6e"/>
     </g>
    </g>
   </g>
   <g id="text_20">
    <g clip-path="url(#pd32255298b)">
     <!-- littéral -->
     <g transform="translate(223.763477 200.829813)scale(0.06 -0.06)">
      <use xlink:href="#DejaVuSans-6c"/>
      <use x="27.783203" xlink:href="#DejaVuSans-69"/>
      <use x="55.566406" xlink:href="#DejaVuSans-74"/>
      <use x="94.775391" xlink:href="#DejaVuSans-74"/>
      <use x="133.984375" xlink:href="#DejaVuSans-e9"/>
      <use x="195.507812" xlink:href="#DejaVuSans-72"/>
      <use x="236.621094" xlink:href="#DejaVuSans-61"/>
      <use x="297.900391" xlink:href="#DejaVuSans-6c"/>
     </g>
    </g>
   </g>
   <g id="text_21">
    <g clip-path="url(#pd32255298b)">
     <!-- cas -->
     <g transform="translate(372.338337 137.823464)scale(0.06 -0.06)">
      <use xlink:href="#DejaVuSans-63"/>
      <use x="54.980469" xlink:href="#DejaVuSans-61"/>
      <use x="116.259766" xlink:href="#DejaVuSans-73"/>
     </g>
    </g>
   </g>
   <g id="text_22">
    <g clip-path="url(#pd32255298b)">
     <!-- figuré -->
     <g transform="translate(79.840514 177.098791)scale(0.06 -0.06)">
      <use xlink:href="#DejaVuSans-66"/>
      <use x="35.205078" xlink:href="#DejaVuSans-69"/>
      <use x="62.988281" xlink:href="#DejaVuSans-67"/>
      <use x="126.464844" xlink:href="#DejaVuSans-75"/>
      <use x="189.84375" xlink:href="#DejaVuSans-72"/>
      <use x="230.925781" xlink:href="#DejaVuSans-e9"/>
     </g>
    </g>
   </g>
   <g id="text_23">
    <g clip-path="url(#pd32255298b)">
     <!-- sens_ROMAN -->
     <defs>
      <path d="M 50.984375 -16.609375 
L 50.984375 -23.578125 
L -0.984375 -23.578125 
L -0.984375 -16.609375 
z
" id="DejaVuSans-5f"/>
      <path d="M 44.390625 34.1875 
Q 47.5625 33.109375 50.5625 29.59375 
Q 53.5625 26.078125 56.59375 19.921875 
L 66.609375 0 
L 56 0 
L 46.6875 18.703125 
Q 43.0625 26.03125 39.671875 28.421875 
Q 36.28125 30.8125 30.421875 30.8125 
L 19.671875 30.8125 
L 19.671875 0 
L 9.8125 0 
L 9.8125 72.90625 
L 32.078125 72.90625 
Q 44.578125 72.90625 50.734375 67.671875 
Q 56.890625 62.453125 56.890625 51.90625 
Q 56.890625 45.015625 53.6875 40.46875 
Q 50.484375 35.9375 44.390625 34.1875 
z
M 19.671875 64.796875 
L 19.671875 38.921875 
L 32.078125 38.921875 
Q 39.203125 38.921875 42.84375 42.21875 
Q 46.484375 45.515625 46.484375 51.90625 
Q 46.484375 58.296875 42.84375 61.546875 
Q 39.203125 64.796875 32.078125 64.796875 
z
" id="DejaVuSans-52"/>
      <path d="M 39.40625 66.21875 
Q 28.65625 66.21875 22.328125 58.203125 
Q 16.015625 50.203125 16.015625 36.375 
Q 16.015625 22.609375 22.328125 14.59375 
Q 28.65625 6.59375 39.40625 6.59375 
Q 50.140625 6.59375 56.421875 14.59375 
Q 62.703125 22.609375 62.703125 36.375 
Q 62.703125 50.203125 56.421875 58.203125 
Q 50.140625 66.21875 39.40625 66.21875 
z
M 39.40625 74.21875 
Q 54.734375 74.21875 63.90625 63.9375 
Q 73.09375 53.65625 73.09375 36.375 
Q 73.09375 19.140625 63.90625 8.859375 
Q 54.734375 -1.421875 39.40625 -1.421875 
Q 24.03125 -1.421875 14.8125 8.828125 
Q 5.609375 19.09375 5.609375 36.375 
Q 5.609375 53.65625 14.8125 63.9375 
Q 24.03125 74.21875 39.40625 74.21875 
z
" id="DejaVuSans-4f"/>
      <path d="M 9.8125 72.90625 
L 24.515625 72.90625 
L 43.109375 23.296875 
L 61.8125 72.90625 
L 76.515625 72.90625 
L 76.515625 0 
L 66.890625 0 
L 66.890625 64.015625 
L 48.09375 14.015625 
L 38.1875 14.015625 
L 19.390625 64.015625 
L 19.390625 0 
L 9.8125 0 
z
" id="DejaVuSans-4d"/>
      <path d="M 34.1875 63.1875 
L 20.796875 26.90625 
L 47.609375 26.90625 
z
M 28.609375 72.90625 
L 39.796875 72.90625 
L 67.578125 0 
L 57.328125 0 
L 50.6875 18.703125 
L 17.828125 18.703125 
L 11.1875 0 
L 0.78125 0 
z
" id="DejaVuSans-41"/>
      <path d="M 9.8125 72.90625 
L 23.09375 72.90625 
L 55.421875 11.921875 
L 55.421875 72.90625 
L 64.984375 72.90625 
L 64.984375 0 
L 51.703125 0 
L 19.390625 60.984375 
L 19.390625 0 
L 9.8125 0 
z
" id="DejaVuSans-4e"/>
     </defs>
     <g transform="translate(279.875225 185.278599)scale(0.06 -0.06)">
      <use xlink:href="#DejaVuSans-73"/>
      <use x="52.099609" xlink:href="#DejaVuSans-65"/>
      <use x="113.623047" xlink:href="#DejaVuSans-6e"/>
      <use x="177.001953" xlink:href="#DejaVuSans-73"/>
      <use x="229.101562" xlink:href="#DejaVuSans-5f"/>
      <use x="279.101562" xlink:href="#DejaVuSans-52"/>
      <use x="348.583984" xlink:href="#DejaVuSans-4f"/>
      <use x="427.294922" xlink:href="#DejaVuSans-4d"/>
      <use x="513.574219" xlink:href="#DejaVuSans-41"/>
      <use x="581.982422" xlink:href="#DejaVuSans-4e"/>
     </g>
    </g>
   </g>
   <g id="text_24">
    <g clip-path="url(#pd32255298b)">
     <!-- métaphorique -->
     <defs>
      <path d="M 54.890625 33.015625 
L 54.890625 0 
L 45.90625 0 
L 45.90625 32.71875 
Q 45.90625 40.484375 42.875 44.328125 
Q 39.84375 48.1875 33.796875 48.1875 
Q 26.515625 48.1875 22.3125 43.546875 
Q 18.109375 38.921875 18.109375 30.90625 
L 18.109375 0 
L 9.078125 0 
L 9.078125 75.984375 
L 18.109375 75.984375 
L 18.109375 46.1875 
Q 21.34375 51.125 25.703125 53.5625 
Q 30.078125 56 35.796875 56 
Q 45.21875 56 50.046875 50.171875 
Q 54.890625 44.34375 54.890625 33.015625 
z
" id="DejaVuSans-68"/>
      <path d="M 14.796875 27.296875 
Q 14.796875 17.390625 18.875 11.75 
Q 22.953125 6.109375 30.078125 6.109375 
Q 37.203125 6.109375 41.296875 11.75 
Q 45.40625 17.390625 45.40625 27.296875 
Q 45.40625 37.203125 41.296875 42.84375 
Q 37.203125 48.484375 30.078125 48.484375 
Q 22.953125 48.484375 18.875 42.84375 
Q 14.796875 37.203125 14.796875 27.296875 
z
M 45.40625 8.203125 
Q 42.578125 3.328125 38.25 0.953125 
Q 33.9375 -1.421875 27.875 -1.421875 
Q 17.96875 -1.421875 11.734375 6.484375 
Q 5.515625 14.40625 5.515625 27.296875 
Q 5.515625 40.1875 11.734375 48.09375 
Q 17.96875 56 27.875 56 
Q 33.9375 56 38.25 53.625 
Q 42.578125 51.265625 45.40625 46.390625 
L 45.40625 54.6875 
L 54.390625 54.6875 
L 54.390625 -20.796875 
L 45.40625 -20.796875 
z
" id="DejaVuSans-71"/>
     </defs>
     <g transform="translate(168.921389 66.339989)scale(0.06 -0.06)">
      <use xlink:href="#DejaVuSans-6d"/>
      <use x="97.412109" xlink:href="#DejaVuSans-e9"/>
      <use x="158.935547" xlink:href="#DejaVuSans-74"/>
      <use x="198.144531" xlink:href="#DejaVuSans-61"/>
      <use x="259.423828" xlink:href="#DejaVuSans-70"/>
      <use x="322.900391" xlink:href="#DejaVuSans-68"/>
      <use x="386.279297" xlink:href="#DejaVuSans-6f"/>
      <use x="447.460938" xlink:href="#DejaVuSans-72"/>
      <use x="488.574219" xlink:href="#DejaVuSans-69"/>
      <use x="516.357422" xlink:href="#DejaVuSans-71"/>
      <use x="579.833984" xlink:href="#DejaVuSans-75"/>
      <use x="643.212891" xlink:href="#DejaVuSans-65"/>
     </g>
    </g>
   </g>
   <g id="text_25">
    <g clip-path="url(#pd32255298b)">
     <!-- logique -->
     <g transform="translate(204.912471 232.032236)scale(0.06 -0.06)">
      <use xlink:href="#DejaVuSans-6c"/>
      <use x="27.783203" xlink:href="#DejaVuSans-6f"/>
      <use x="88.964844" xlink:href="#DejaVuSans-67"/>
      <use x="152.441406" xlink:href="#DejaVuSans-69"/>
      <use x="180.224609" xlink:href="#DejaVuSans-71"/>
      <use x="243.701172" xlink:href="#DejaVuSans-75"/>
      <use x="307.080078" xlink:href="#DejaVuSans-65"/>
     </g>
    </g>
   </g>
   <g id="text_26">
    <g clip-path="url(#pd32255298b)">
     <!-- sens_WIKI -->
     <defs>
      <path d="M 3.328125 72.90625 
L 13.28125 72.90625 
L 28.609375 11.28125 
L 43.890625 72.90625 
L 54.984375 72.90625 
L 70.3125 11.28125 
L 85.59375 72.90625 
L 95.609375 72.90625 
L 77.296875 0 
L 64.890625 0 
L 49.515625 63.28125 
L 33.984375 0 
L 21.578125 0 
z
" id="DejaVuSans-57"/>
      <path d="M 9.8125 72.90625 
L 19.671875 72.90625 
L 19.671875 0 
L 9.8125 0 
z
" id="DejaVuSans-49"/>
      <path d="M 9.8125 72.90625 
L 19.671875 72.90625 
L 19.671875 42.09375 
L 52.390625 72.90625 
L 65.09375 72.90625 
L 28.90625 38.921875 
L 67.671875 0 
L 54.6875 0 
L 19.671875 35.109375 
L 19.671875 0 
L 9.8125 0 
z
" id="DejaVuSans-4b"/>
     </defs>
     <g transform="translate(148.646097 155.248082)scale(0.06 -0.06)">
      <use xlink:href="#DejaVuSans-73"/>
      <use x="52.099609" xlink:href="#DejaVuSans-65"/>
      <use x="113.623047" xlink:href="#DejaVuSans-6e"/>
      <use x="177.001953" xlink:href="#DejaVuSans-73"/>
      <use x="229.101562" xlink:href="#DejaVuSans-5f"/>
      <use x="279.101562" xlink:href="#DejaVuSans-57"/>
      <use x="377.978516" xlink:href="#DejaVuSans-49"/>
      <use x="407.470703" xlink:href="#DejaVuSans-4b"/>
      <use x="473.046875" xlink:href="#DejaVuSans-49"/>
     </g>
    </g>
   </g>
   <g id="text_27">
    <g clip-path="url(#pd32255298b)">
     <!-- cohérence -->
     <g transform="translate(291.712811 275.50397)scale(0.06 -0.06)">
      <use xlink:href="#DejaVuSans-63"/>
      <use x="54.980469" xlink:href="#DejaVuSans-6f"/>
      <use x="116.162109" xlink:href="#DejaVuSans-68"/>
      <use x="179.541016" xlink:href="#DejaVuSans-e9"/>
      <use x="241.064453" xlink:href="#DejaVuSans-72"/>
      <use x="282.146484" xlink:href="#DejaVuSans-65"/>
      <use x="343.669922" xlink:href="#DejaVuSans-6e"/>
      <use x="407.048828" xlink:href="#DejaVuSans-63"/>
      <use x="462.029297" xlink:href="#DejaVuSans-65"/>
     </g>
    </g>
   </g>
   <g id="text_28">
    <g clip-path="url(#pd32255298b)">
     <!-- direction -->
     <g transform="translate(370.51806 163.86075)scale(0.06 -0.06)">
      <use xlink:href="#DejaVuSans-64"/>
      <use x="63.476562" xlink:href="#DejaVuSans-69"/>
      <use x="91.259766" xlink:href="#DejaVuSans-72"/>
      <use x="132.341797" xlink:href="#DejaVuSans-65"/>
      <use x="193.865234" xlink:href="#DejaVuSans-63"/>
      <use x="248.845703" xlink:href="#DejaVuSans-74"/>
      <use x="288.054688" xlink:href="#DejaVuSans-69"/>
      <use x="315.837891" xlink:href="#DejaVuSans-6f"/>
      <use x="377.019531" xlink:href="#DejaVuSans-6e"/>
     </g>
    </g>
   </g>
   <g id="text_29">
    <g clip-path="url(#pd32255298b)">
     <!-- acception -->
     <g transform="translate(211.312832 170.108845)scale(0.06 -0.06)">
      <use xlink:href="#DejaVuSans-61"/>
      <use x="61.279297" xlink:href="#DejaVuSans-63"/>
      <use x="116.259766" xlink:href="#DejaVuSans-63"/>
      <use x="171.240234" xlink:href="#DejaVuSans-65"/>
      <use x="232.763672" xlink:href="#DejaVuSans-70"/>
      <use x="296.240234" xlink:href="#DejaVuSans-74"/>
      <use x="335.449219" xlink:href="#DejaVuSans-69"/>
      <use x="363.232422" xlink:href="#DejaVuSans-6f"/>
      <use x="424.414062" xlink:href="#DejaVuSans-6e"/>
     </g>
    </g>
   </g>
  </g>
 </g>
 <defs>
  <clipPath id="pd32255298b">
   <rect height="266.112" width="357.12" x="57.6" y="41.472"/>
  </clipPath>
 </defs>
</svg>
